<svg xmlns="http://www.w3.org/2000/svg" xmlns:xlink="http://www.w3.org/1999/xlink" width="128" height="128" preserveAspectRatio="xMidYMid meet" viewBox="0 0 128 128" style="-ms-transform: rotate(360deg); -webkit-transform: rotate(360deg); transform: rotate(360deg);"><defs><path id="IconifyId-16e95eab1d4-52f28b-108" d="M.41 0H128v128H.41z"/></defs><clipPath id="IconifyId-16e95eab1d4-52f28b-109"><use xlink:href="#IconifyId-16e95eab1d4-52f28b-108" overflow="visible"/></clipPath><g clip-path="url(#IconifyId-16e95eab1d4-52f28b-109)"><path d="M127.79 34.67c0-13.83-28.55-25.03-63.79-25.03C28.77 9.64.21 20.84.21 34.67c0 13.83 1.48 83.68 63.79 83.68c62.32.01 63.79-69.85 63.79-83.68z" fill="#fcc21b"/></g><g clip-path="url(#IconifyId-16e95eab1d4-52f28b-109)" fill="#2f2f2f"><path d="M42 82c-4.49.04-8.17-4.27-8.22-9.62c-.05-5.37 3.55-9.75 8.04-9.79c4.48-.04 8.17 4.27 8.22 9.64c.05 5.36-3.55 9.73-8.04 9.77z"/><path d="M86.11 82c4.48-.01 8.11-4.36 8.1-9.71c-.01-5.37-3.66-9.7-8.14-9.69c-4.49.01-8.13 4.36-8.12 9.73c.02 5.35 3.67 9.68 8.16 9.67z"/><path d="M63.89 30.94c-14.13 0-22.18 8.14-22.52 8.48a3.254 3.254 0 0 0 4.67 4.53c.25-.25 6.58-6.51 17.85-6.51c11.27 0 17.6 6.25 17.87 6.52a3.26 3.26 0 0 0 4.59.04a3.238 3.238 0 0 0 .06-4.58c-.34-.34-8.39-8.48-22.52-8.48z"/></g><rect x="0" y="0" width="128" height="128" fill="rgba(0, 0, 0, 0)" /></svg>